<?xml version="1.0" encoding="utf-8"?>
<!-- Generator: Adobe Illustrator 24.3.0, SVG Export Plug-In . SVG Version: 6.00 Build 0)  -->
<svg version="1.1" id="Layer_1" xmlns="http://www.w3.org/2000/svg" xmlns:xlink="http://www.w3.org/1999/xlink" x="0px" y="0px"
	 viewBox="0 0 469.3 469.3" style="enable-background:new 0 0 469.3 469.3;" xml:space="preserve">
<style type="text/css">
	.st0{fill:#A8A9B4;}
</style>
<g>
	<g>
		<g>
			<path class="st0" d="M426.7,0h-384C19.1,0,0,19.1,0,42.7v64c0,23.5,19.1,42.7,42.7,42.7h384c23.5,0,42.7-19.1,42.7-42.7v-64
				C469.3,19.1,450.2,0,426.7,0z M85.3,96c0,5.9-4.8,10.7-10.7,10.7S64,101.9,64,96V53.3c0-5.9,4.8-10.7,10.7-10.7
				s10.7,4.8,10.7,10.7L85.3,96L85.3,96z M128,96c0,5.9-4.8,10.7-10.7,10.7s-10.7-4.8-10.7-10.7V53.3c0-5.9,4.8-10.7,10.7-10.7
				S128,47.4,128,53.3V96z M170.7,96c0,5.9-4.8,10.7-10.7,10.7c-5.9,0-10.7-4.8-10.7-10.7V53.3c0-5.9,4.8-10.7,10.7-10.7
				s10.7,4.8,10.7,10.7L170.7,96L170.7,96z M320,96c-11.8,0-21.3-9.6-21.3-21.3s9.6-21.3,21.3-21.3s21.3,9.6,21.3,21.3
				S331.8,96,320,96z M384,96c-11.8,0-21.3-9.6-21.3-21.3s9.6-21.3,21.3-21.3s21.3,9.6,21.3,21.3S395.8,96,384,96z"/>
			<path class="st0" d="M426.7,160h-384C19.1,160,0,179.1,0,202.7v64c0,23.5,19.1,42.7,42.7,42.7h384c23.5,0,42.7-19.1,42.7-42.7
				v-64C469.3,179.1,450.2,160,426.7,160z M85.3,256c0,5.9-4.8,10.7-10.7,10.7S64,261.9,64,256v-42.7c0-5.9,4.8-10.7,10.7-10.7
				s10.7,4.8,10.7,10.7L85.3,256L85.3,256z M128,256c0,5.9-4.8,10.7-10.7,10.7s-10.7-4.8-10.7-10.7v-42.7c0-5.9,4.8-10.7,10.7-10.7
				s10.7,4.8,10.7,10.7V256z M170.7,256c0,5.9-4.8,10.7-10.7,10.7c-5.9,0-10.7-4.8-10.7-10.7v-42.7c0-5.9,4.8-10.7,10.7-10.7
				s10.7,4.8,10.7,10.7L170.7,256L170.7,256z M320,256c-11.8,0-21.3-9.6-21.3-21.3s9.6-21.3,21.3-21.3s21.3,9.6,21.3,21.3
				S331.8,256,320,256z M384,256c-11.8,0-21.3-9.6-21.3-21.3s9.6-21.3,21.3-21.3s21.3,9.6,21.3,21.3S395.8,256,384,256z"/>
			<path class="st0" d="M426.7,320h-384C19.1,320,0,339.1,0,362.7v64c0,23.5,19.1,42.7,42.7,42.7h384c23.5,0,42.7-19.1,42.7-42.7
				v-64C469.3,339.1,450.2,320,426.7,320z M85.3,416c0,5.9-4.8,10.7-10.7,10.7S64,421.9,64,416v-42.7c0-5.9,4.8-10.7,10.7-10.7
				s10.7,4.8,10.7,10.7L85.3,416L85.3,416z M128,416c0,5.9-4.8,10.7-10.7,10.7s-10.7-4.8-10.7-10.7v-42.7c0-5.9,4.8-10.7,10.7-10.7
				s10.7,4.8,10.7,10.7V416z M170.7,416c0,5.9-4.8,10.7-10.7,10.7c-5.9,0-10.7-4.8-10.7-10.7v-42.7c0-5.9,4.8-10.7,10.7-10.7
				s10.7,4.8,10.7,10.7L170.7,416L170.7,416z M320,416c-11.8,0-21.3-9.6-21.3-21.3s9.6-21.3,21.3-21.3s21.3,9.6,21.3,21.3
				S331.8,416,320,416z M384,416c-11.8,0-21.3-9.6-21.3-21.3s9.6-21.3,21.3-21.3s21.3,9.6,21.3,21.3S395.8,416,384,416z"/>
		</g>
	</g>
</g>
</svg>
