<?xml version="1.0" encoding="utf-8"?>
<!-- Generator: Adobe Illustrator 24.3.0, SVG Export Plug-In . SVG Version: 6.00 Build 0)  -->
<svg version="1.1" id="Layer_1" xmlns="http://www.w3.org/2000/svg" xmlns:xlink="http://www.w3.org/1999/xlink" x="0px" y="0px"
	 viewBox="0 0 512 512" style="enable-background:new 0 0 512 512;" xml:space="preserve">
<style type="text/css">
	.st0{fill:#A8A9B4;}
</style>
<g>
	<g>
		<path class="st0" d="M469.3,21.3H42.7C19.1,21.3,0,40.5,0,64v298.7c0,23.5,19.1,42.7,42.7,42.7H192c-0.4,17-3.7,44.2-15.9,57.1
			c-4.5,4.7-9.6,6.9-16.1,6.9c-5.9,0-10.7,4.8-10.7,10.7s4.8,10.7,10.7,10.7h192c5.9,0,10.7-4.8,10.7-10.7s-4.8-10.7-10.7-10.7
			c-6.5,0-11.7-2.2-16.1-6.9c-12.2-12.8-15.4-40.1-15.9-57.1h149.4c23.5,0,42.7-19.1,42.7-42.7V64C512,40.5,492.9,21.3,469.3,21.3z
			 M256,384.1c-11.8,0-21.4-9.6-21.4-21.4s9.6-21.4,21.4-21.4s21.4,9.6,21.4,21.4S267.8,384.1,256,384.1z M42.7,320V64h426.7l0,256
			H42.7z"/>
	</g>
</g>
</svg>
