<?xml version="1.0" encoding="utf-8"?>
<!-- Generator: Adobe Illustrator 24.3.0, SVG Export Plug-In . SVG Version: 6.00 Build 0)  -->
<svg version="1.1" id="Capa_1" xmlns="http://www.w3.org/2000/svg" xmlns:xlink="http://www.w3.org/1999/xlink" x="0px" y="0px"
	 viewBox="0 0 512 512" style="enable-background:new 0 0 512 512;" xml:space="preserve">
<style type="text/css">
	.st0{fill:#FFFFFF;}
</style>
<g>
	<g>
		<path class="st0" d="M407.1,377c-1.9-1.9-4.4-2.9-7.1-2.9s-5.2,1.1-7.1,2.9c-1.9,1.9-2.9,4.4-2.9,7.1s1.1,5.2,2.9,7.1
			c1.9,1.9,4.4,2.9,7.1,2.9s5.2-1.1,7.1-2.9c1.9-1.9,2.9-4.4,2.9-7.1S408.9,378.9,407.1,377z"/>
	</g>
</g>
<g>
	<g>
		<path class="st0" d="M472,0H40C17.9,0,0,17.9,0,40v314.1c0,22.1,17.9,40,40,40h157v50.2c-29.3,2.9-52.3,27.6-52.3,57.7
			c0,5.5,4.5,10,10,10h202.7c5.5,0,10-4.5,10-10c0-30.7-24.1-56-54.3-57.9v-50h46.7c5.5,0,10-4.5,10-10s-4.5-10-10-10H40
			c-11,0-20-9-20-20V40c0-11,9-20,20-20h432c11,0,20,9,20,20v314.1c0,11-9,20-20,20h-37.3c-5.5,0-10,4.5-10,10s4.5,10,10,10H472
			c22.1,0,40-17.9,40-40V40C512,17.9,494.1,0,472,0z M217,394.1h76V444h-76V394.1z M309.3,464c17.5,0,32.3,11.9,36.7,28H166
			c4.4-16.1,19.2-28,36.7-28H309.3z"/>
	</g>
</g>
<g>
	<g>
		<path class="st0" d="M262.1,345c-1.9-1.9-4.4-2.9-7.1-2.9s-5.2,1.1-7.1,2.9s-2.9,4.4-2.9,7.1c0,2.6,1.1,5.2,2.9,7.1
			c1.9,1.9,4.4,2.9,7.1,2.9s5.2-1.1,7.1-2.9c1.9-1.9,2.9-4.4,2.9-7.1C265,349.5,263.9,346.9,262.1,345z"/>
	</g>
</g>
<g>
	<g>
		<path class="st0" d="M146.2,183.3l49-49c3.9-3.9,3.9-10.2,0-14.1s-10.2-3.9-14.1,0L125,176.2c-3.9,3.9-3.9,10.2,0,14.1l56.1,56.1
			c2,2,4.5,2.9,7.1,2.9s5.1-1,7.1-2.9c3.9-3.9,3.9-10.2,0-14.1L146.2,183.3z"/>
	</g>
</g>
<g>
	<g>
		<path class="st0" d="M387,176.2l-56.1-56.1c-3.9-3.9-10.2-3.9-14.1,0c-3.9,3.9-3.9,10.2,0,14.1l49,49l-49,49
			c-3.9,3.9-3.9,10.2,0,14.1c2,2,4.5,2.9,7.1,2.9s5.1-1,7.1-2.9l56.1-56.1C390.9,186.5,390.9,180.1,387,176.2z"/>
	</g>
</g>
<g>
	<g>
		<path class="st0" d="M273.6,121.5c-5.3-1.4-10.8,1.7-12.2,7.1l-29.9,111.7c-1.4,5.3,1.7,10.8,7.1,12.2c0.9,0.2,1.7,0.3,2.6,0.3
			c4.4,0,8.5-2.9,9.7-7.4l29.9-111.7C282.1,128.4,278.9,123,273.6,121.5z"/>
	</g>
</g>
<g>
	<g>
		<path class="st0" d="M462,40.1H303c-5.5,0-10,4.5-10,10s4.5,10,10,10h149v250H60v-250h153.5c5.5,0,10-4.5,10-10s-4.5-10-10-10H50
			c-5.5,0-10,4.5-10,10v270c0,5.5,4.5,10,10,10h412c5.5,0,10-4.5,10-10v-270C472,44.6,467.5,40.1,462,40.1z"/>
	</g>
</g>
<g>
	<g>
		<path class="st0" d="M265.1,43c-1.9-1.9-4.4-2.9-7.1-2.9s-5.2,1.1-7.1,2.9s-2.9,4.4-2.9,7.1s1.1,5.2,2.9,7.1
			c1.9,1.9,4.4,2.9,7.1,2.9s5.2-1.1,7.1-2.9c1.9-1.9,2.9-4.4,2.9-7.1C268,47.5,266.9,44.9,265.1,43z"/>
	</g>
</g>
</svg>
