<?xml version="1.0" encoding="utf-8"?>
<!-- Generator: Adobe Illustrator 24.3.0, SVG Export Plug-In . SVG Version: 6.00 Build 0)  -->
<svg version="1.1" id="Capa_1" xmlns="http://www.w3.org/2000/svg" xmlns:xlink="http://www.w3.org/1999/xlink" x="0px" y="0px"
	 viewBox="0 0 480 480" style="enable-background:new 0 0 480 480;" xml:space="preserve">
<style type="text/css">
	.st0{fill:#FFFFFF;}
</style>
<g>
	<g>
		<path class="st0" d="M328,88H152C68.1,88,0,156.1,0,240s68.1,152,152,152h176c83.9,0,152-68.1,152-152S411.9,88,328,88z M328,376
			H152c-75.1,0-136-60.9-136-136s60.9-136,136-136h176c75.1,0,136,60.9,136,136S403.1,376,328,376z"/>
	</g>
</g>
<g>
	<g>
		<path class="st0" d="M328,136c-57.4,0-104,46.6-104,104s46.6,104,104,104c57.4-0.1,103.9-46.6,104-104
			C432,182.6,385.4,136,328,136z M328,328c-48.6,0-88-39.4-88-88s39.4-88,88-88c48.6,0.1,87.9,39.4,88,88
			C416,288.6,376.6,328,328,328z"/>
	</g>
</g>
</svg>
